<?xml version="1.0" standalone="no"?><!DOCTYPE svg PUBLIC "-//W3C//DTD SVG 1.1//EN" "http://www.w3.org/Graphics/SVG/1.1/DTD/svg11.dtd"><svg t="1555511990262" class="icon" style="" viewBox="0 0 1024 1024" version="1.1" xmlns="http://www.w3.org/2000/svg" p-id="2054" xmlns:xlink="http://www.w3.org/1999/xlink" width="200" height="200"><defs><style type="text/css"></style></defs><path d="M242.133333 533.376l441.578667 0c11.84 0 21.376-9.6 21.376-21.376s-9.536-21.354667-21.376-21.354667L242.133333 490.645333c-11.797333 0-21.354667 9.557333-21.354667 21.354667S230.336 533.376 242.133333 533.376z" p-id="2055" fill="#1296db"></path><path d="M781.824 637.781333 242.133333 637.781333c-11.797333 0-21.354667 9.557333-21.354667 21.376 0 11.84 9.557333 21.376 21.354667 21.376l539.690667 0c11.84 0 21.376-9.536 21.376-21.376C803.2 647.36 793.664 637.781333 781.824 637.781333z" p-id="2056" fill="#1296db"></path><path d="M781.824 785.002667 242.133333 785.002667c-11.797333 0-21.354667 9.557333-21.354667 21.376 0 11.84 9.557333 21.354667 21.354667 21.354667l539.690667 0c11.84 0 21.376-9.514667 21.376-21.354667C803.2 794.56 793.664 785.002667 781.824 785.002667z" p-id="2057" fill="#1296db"></path><path d="M950.144 314.496c-0.128-2.005333-0.490667-3.925333-1.173333-5.802667-0.234667-0.64-0.384-1.258667-0.661333-1.856-1.024-2.24-2.325333-4.394667-4.138667-6.229333L649.792 6.250667c-1.834667-1.834667-4.010667-3.136-6.250667-4.181333-0.576-0.256-1.173333-0.405333-1.770667-0.618667-1.941333-0.682667-3.904-1.088-5.930667-1.194667C635.413333 0.213333 635.050667 0 634.624 0L242.133333 0C149.184 0 73.578667 75.605333 73.578667 168.554667L73.578667 855.466667c0 92.906667 75.605333 168.533333 168.554667 168.533333l539.690667 0c92.906667 0 168.576-75.626667 168.554667-168.533333L950.378667 315.733333C950.4 315.285333 950.165333 314.922667 950.144 314.496zM656 72.938667l221.418667 221.418667-169.173333 0c-28.8 0-52.245333-23.424-52.245333-52.224L656 72.938667zM781.824 981.248 242.133333 981.248c-69.376 0-125.824-56.448-125.824-125.824L116.309333 168.533333c0-69.376 56.448-125.824 125.824-125.824l371.2 0 0 199.424c0 52.352 42.581333 94.954667 94.912 94.954667l199.402667 0 0 518.336C907.648 924.8 851.2 981.248 781.824 981.248z" p-id="2058" fill="#1296db"></path></svg>