<?xml version="1.0" standalone="no"?><!DOCTYPE svg PUBLIC "-//W3C//DTD SVG 1.1//EN" "http://www.w3.org/Graphics/SVG/1.1/DTD/svg11.dtd"><svg t="1555135043338" class="icon" style="" viewBox="0 0 1024 1024" version="1.1" xmlns="http://www.w3.org/2000/svg" p-id="2694" xmlns:xlink="http://www.w3.org/1999/xlink" width="200" height="200"><defs><style type="text/css"></style></defs><path d="M1002.359 205.444c0 0-54.533-45.314-110.271-69.166-60.648-29.07-146.357-27.734-146.357-27.734s-60.398-4.458-122.298 24.726c-61.9 29.185-107.596 68.832-107.596 68.832s-63.147-48.251-118.957-73.509-136.334-20.049-136.334-20.049-76.634 3.894-125.942 26.055-94.596 74.854-94.596 74.854l0 679.631c0 0 69.706-60.245 111.272-77.185 41.565-16.941 106.593-16.373 106.593-16.373s77.884 9.335 124.303 28.067c46.421 18.734 133.661 88.212 133.661 88.212s55.612-59.26 100.245-81.529c75.685-39.093 150.71-33.413 150.71-33.413s46.104 2.005 110.261 26.063c58.329 21.873 126.482 67.495 126.482 67.495l-1.175-684.978zM492.111 836.959c0 0-119.348-94.35-234.238-92.221-108.264 2.005-149.699 29.404-177.767 57.471 1.003-33.079-0.505-568.06-0.505-568.06s41.604-74.816 181.947-80.831c119.291-10.024 222.21 74.178 228.558 90.217 3.008 21.051 2.005 593.424 2.005 593.424zM958.25 814.907c-28.068-28.067-103.252-70.168-211.516-72.173-114.891-2.128-205.341 95.229-205.341 95.229s-1.003-572.374 2.005-593.424c10.025-16.038 88.216-96.231 228.558-90.217 121.639 5.295 187.865 78.972 187.865 78.972s-1.457 548.806-1.571 581.613z" p-id="2695" fill="#ffffff"></path></svg>