<?xml version="1.0" standalone="no"?><!DOCTYPE svg PUBLIC "-//W3C//DTD SVG 1.1//EN" "http://www.w3.org/Graphics/SVG/1.1/DTD/svg11.dtd"><svg t="1556894816621" class="icon" style="" viewBox="0 0 1024 1024" version="1.1" xmlns="http://www.w3.org/2000/svg" p-id="3410" xmlns:xlink="http://www.w3.org/1999/xlink" width="200" height="200"><defs><style type="text/css"></style></defs><path d="M505.856 111.616c73.728 0 140.288 29.696 188.416 77.824 48.128 48.128 77.824 114.688 77.824 188.416 0 49.152-13.312 95.744-36.864 135.168-21.504 36.352-51.2 67.072-87.04 89.6v27.648l10.24-1.024 19.968-1.536 7.68 18.432c6.656 15.36 9.728 30.208 9.728 45.056 0 15.36-3.584 30.208-9.728 44.032l-2.048 4.608 2.56 5.632c6.656 15.36 9.728 30.208 9.728 45.056 0 15.36-3.584 30.208-9.728 44.032l-6.656 14.848-15.872 1.536-301.568 26.624-20.992 2.048-7.168-19.456c-4.608-12.8-8.704-26.112-9.216-40.96-0.512-15.36 2.048-31.232 9.728-48.128l1.536-3.584-2.56-6.656c-4.608-12.8-8.704-26.112-9.216-40.96-0.512-15.36 2.048-31.232 9.728-48.128l6.656-14.336 15.872-1.536 11.264-1.024v-49.152c-36.864-22.016-67.584-53.248-90.112-90.112-24.576-40.448-38.4-87.552-38.4-138.24 0-73.728 29.696-140.288 77.824-188.416 48.128-47.616 115.2-77.312 188.416-77.312zM447.488 428.544c4.608 2.048 9.216 3.584 13.312 3.584 5.632 0 10.752-2.048 15.872-6.144l4.096-3.584 4.608 3.584c7.168 5.632 13.312 8.704 19.456 8.704 5.632 0 11.264-2.56 16.384-8.192l4.608-4.608 5.12 4.096c7.68 6.656 14.848 8.704 22.016 7.68 6.144-0.512 12.8-3.072 18.944-6.144l9.728-15.872 23.552 14.336-57.344 91.648v121.344l44.544-4.096V570.368l14.336-7.68c33.28-18.432 60.928-45.056 80.384-77.824 18.432-31.232 29.184-68.096 29.184-107.52 0-58.368-23.552-111.104-61.952-148.992-38.4-38.4-91.136-61.952-148.992-61.952-58.368 0-111.104 23.552-148.992 61.952-38.4 38.4-61.952 91.136-61.952 148.992 0 40.448 11.264 77.824 30.208 109.568 19.968 32.768 48.64 59.904 83.456 77.824l14.848 7.68V640h46.592v-122.88l-56.32-91.136 23.552-14.336 10.752 16.896z m112.64 17.92c-2.048 0.512-4.096 0.512-5.632 1.024-9.216 1.024-18.432-1.024-27.648-7.168-7.168 5.632-14.848 8.192-22.528 8.192-7.68-0.512-15.36-3.072-23.04-8.704-6.656 4.608-13.312 6.656-20.48 6.144h-2.56L496.128 506.88l2.048 3.584v130.56h22.528V510.464l2.048-3.584 37.376-60.416z m25.088 427.52l-152.064 13.312c5.12 37.376 36.864 66.048 75.776 66.048 42.496 0 76.288-34.304 76.288-76.288v-3.072z m55.296-88.064L379.904 808.96c-0.512 2.56-0.512 5.632-0.512 8.192 0 1.024 0 2.56 0.512 3.584l260.096-23.04c0.512-2.56 0.512-4.608 0.512-7.168v-4.608z m0-99.328l-260.608 23.04c-0.512 2.56-0.512 5.632-0.512 8.192 0 1.024 0 2.56 0.512 3.584l260.096-23.04c0.512-2.048 0.512-4.608 0.512-7.168v-4.608z" fill="#f4ea2a" p-id="3411"></path></svg>