<?xml version="1.0" standalone="no"?><!DOCTYPE svg PUBLIC "-//W3C//DTD SVG 1.1//EN" "http://www.w3.org/Graphics/SVG/1.1/DTD/svg11.dtd"><svg t="1556894779003" class="icon" style="" viewBox="0 0 1024 1024" version="1.1" xmlns="http://www.w3.org/2000/svg" p-id="2495" xmlns:xlink="http://www.w3.org/1999/xlink" width="200" height="200"><defs><style type="text/css"></style></defs><path d="M958.1312 440.0128a92.4672 92.4672 0 0 0-52.5056-66.5856l-162.1504-72.32-159.9744-202.6496a87.552 87.552 0 0 0-72.704-33.8176 88.2432 88.2432 0 0 0-70.4256 38.3232l-137.1904 198.0672-181.888 73.3696a92.0064 92.0064 0 0 0-55.0656 66.1248 94.6944 94.6944 0 0 0 23.3728 85.376l108.9024 115.2256-2.8416 223.3856a93.5936 93.5936 0 0 0 39.5264 78.1568 87.936 87.936 0 0 0 81.7152 10.3424l194.0736-73.5232 191.9232 72.6272c12.4672 5.6064 24.7552 8.3712 36.5312 8.3712 23.552 0 45.0048-11.0848 61.5936-32.5632a38.4 38.4 0 1 0-60.7488-46.976c-0.9984 1.2544-1.7408 2.0736-2.0224 2.4832a46.08 46.08 0 0 1-6.016-2.2528l-199.1168-75.4176a62.336 62.336 0 0 0-44.2624 0l-199.1424 75.4432a10.752 10.752 0 0 1-10.4704-1.4336 16.5632 16.5632 0 0 1-6.7584-14.2848l2.9184-229.2224a62.208 62.208 0 0 0-17.0752-43.6736l-112.896-119.4496a17.92 17.92 0 0 1-4.1728-16.2304c0.5376-2.56 2.5344-8.7552 8.7808-11.2896l185.8048-74.9568c11.3664-4.5568 21.0432-12.288 28.032-22.4l139.648-201.6a12.032 12.032 0 0 1 9.7024-5.2736 11.9296 11.9296 0 0 1 10.0096 4.6592l162.176 205.44c6.2208 7.8592 14.3616 14.1824 23.552 18.304l165.3504 73.7536c6.1184 2.7392 7.9616 8.9344 8.4736 11.4688 0.5632 2.816 1.28 10.0608-4.2496 15.8976l-114.816 121.5232a62.0288 62.0288 0 0 0-17.0496 44.5696l2.2272 84.0704a38.3232 38.3232 0 0 0 39.424 37.3504 38.4 38.4 0 0 0 37.3504-39.424l-2.0736-78.1568 110.7456-117.2224a94.592 94.592 0 0 0 23.7824-83.6096z" fill="#1296db" p-id="2496"></path><path d="M506.24 274.432l-89.4464 138.368-144.4096 59.648a25.6 25.6 0 0 0 19.5584 47.3344l151.7824-62.6944c4.8128-1.9968 8.9088-5.4016 11.7248-9.7536l93.7728-145.0752a25.6 25.6 0 0 0-42.9824-27.8272z" fill="#1296db" p-id="2497"></path></svg>