<?xml version="1.0" standalone="no"?><!DOCTYPE svg PUBLIC "-//W3C//DTD SVG 1.1//EN" "http://www.w3.org/Graphics/SVG/1.1/DTD/svg11.dtd"><svg t="1556894723958" class="icon" style="" viewBox="0 0 1024 1024" version="1.1" xmlns="http://www.w3.org/2000/svg" p-id="1629" xmlns:xlink="http://www.w3.org/1999/xlink" width="200" height="200"><defs><style type="text/css"></style></defs><path d="M864 96H256c-35.346 0-64 28.654-64 64v640H96v64c0 35.347 28.654 64 64 64h608c35.346 0 64-28.653 64-64V224h96v-64c0-35.346-28.654-64-64-64zM160 896c-17.673 0-32-14.327-32-32v-32h544v32a63.692 63.692 0 0 0 8.583 32H160z m640-736v704c0 17.673-14.327 32-32 32h-32c-17.673 0-32-14.327-32-32v-64H224V160c0-17.673 14.327-32 32-32h552.584A63.682 63.682 0 0 0 800 160z m96 32h-64v-32c0-17.673 14.327-32 32-32s32 14.327 32 32v32z m-560 96h160c8.836 0 16-7.164 16-16s-7.164-16-16-16H336c-8.836 0-16 7.164-16 16s7.164 16 16 16z m0 128h352c8.837 0 16-7.164 16-16s-7.163-16-16-16H336c-8.836 0-16 7.164-16 16s7.164 16 16 16z m0 128h224c8.837 0 16-7.163 16-16s-7.163-16-16-16H336c-8.836 0-16 7.163-16 16s7.164 16 16 16z m0 128h352c8.837 0 16-7.163 16-16s-7.163-16-16-16H336c-8.836 0-16 7.163-16 16s7.164 16 16 16z" p-id="1630" fill="#1afa29"></path></svg>