<?xml version="1.0" standalone="no"?><!DOCTYPE svg PUBLIC "-//W3C//DTD SVG 1.1//EN" "http://www.w3.org/Graphics/SVG/1.1/DTD/svg11.dtd"><svg t="1555135027467" class="icon" style="" viewBox="0 0 1024 1024" version="1.1" xmlns="http://www.w3.org/2000/svg" p-id="1720" xmlns:xlink="http://www.w3.org/1999/xlink" width="200" height="200"><defs><style type="text/css"></style></defs><path d="M684.54938 347.912851 339.745333 347.912851c-26.820855 0-48.644907-21.819958-48.644907-48.64286L291.100426 171.22778c0-26.820855 21.823028-48.63979 48.644907-48.63979l58.814524 0c7.632841-55.864332 55.661717-99.045807 113.586988-99.045807 57.926294 0 105.956194 43.181475 113.588011 99.045807l58.815547 0c26.819832 0 48.641837 21.818935 48.641837 48.63979l0 128.042211C733.191216 326.092893 711.369212 347.912851 684.54938 347.912851zM339.745333 169.676447c-0.856507 0-1.555425 0.695848-1.555425 1.552356l0 128.042211c0 0.857531 0.698918 1.554402 1.555425 1.554402l344.804047 0c0.856507 0 1.555425-0.696872 1.555425-1.554402L686.104805 171.22778c0-0.856507-0.698918-1.552356-1.555425-1.552356L577.209676 169.675424l2.217505-25.576515c0.185218-2.175549 0.277316-4.109598 0.277316-5.91164 0-37.249369-30.306236-67.557652-67.557652-67.557652-37.249369 0-67.556629 30.30726-67.556629 67.557652 0 1.802042 0.091074 3.736091 0.277316 5.91164l2.215458 25.576515L339.745333 169.675424zM312.189743 762.741741l398.74968 0 0 47.088458-398.74968 0 0-47.088458ZM312.189743 612.647281l398.74968 0 0 47.089481-398.74968 0 0-47.089481ZM312.189743 462.552821l398.74968 0 0 47.089481-398.74968 0 0-47.089481ZM816.403406 967.789791 205.388299 967.789791c-32.55137 0-59.034535-26.484188-59.034535-59.033511L146.353764 271.38899c0-32.552393 26.484188-59.034535 59.034535-59.034535l83.699284 0 0-40.61707c0-26.912953 21.898753-48.807612 48.812729-48.807612l59.017138 0c7.658424-56.056714 55.852052-99.387591 113.977891-99.387591 58.126862 0 106.320491 43.330878 113.978914 99.387591l59.018162 0c26.912953 0 48.809659 21.894659 48.809659 48.807612l0 40.61707 83.70133 0c32.55137 0 59.035558 26.483164 59.035558 59.034535l0 637.367289C875.438964 941.305603 848.953753 967.789791 816.403406 967.789791zM205.388299 259.605619c-6.497994 0-11.783371 5.2864-11.783371 11.784394l0 637.367289c0 6.497994 5.285377 11.783371 11.783371 11.783371l611.015108 0c6.499018 0 11.786441-5.285377 11.786441-11.783371L828.189847 271.38899c0-6.497994-5.287423-11.784394-11.786441-11.784394L685.451936 259.604596l0-87.868233c0-0.858554-0.700965-1.557472-1.559519-1.557472L576.178183 170.178891l2.229784-25.664519c0.185218-2.181689 0.277316-4.121877 0.277316-5.932106 0-37.379329-30.411637-67.789942-67.789942-67.789942-37.377282 0-67.788919 30.40959-67.788919 67.789942 0 1.810229 0.091074 3.750417 0.278339 5.932106l2.226714 25.664519L337.900312 170.178891c-0.859577 0-1.560542 0.698918-1.560542 1.557472l0 87.868233L205.388299 259.604596z" p-id="1721" fill="#ffffff"></path></svg>